<svg width="20" height="22" viewBox="0 0 20 22" fill="none" xmlns="http://www.w3.org/2000/svg">
<path d="M3.75 0.75L0.75 4.75V18.75C0.75 19.2804 0.960714 19.7891 1.33579 20.1642C1.71086 20.5393 2.21957 20.75 2.75 20.75H16.75C17.2804 20.75 17.7891 20.5393 18.1642 20.1642C18.5393 19.7891 18.75 19.2804 18.75 18.75V4.75L15.75 0.75H3.75Z" fill="#DDDDDD" stroke="#232323" stroke-width="1.5" stroke-linecap="round" stroke-linejoin="round"/>
<path d="M0.75 4.75H18.75" stroke="#232323" stroke-width="1.5" stroke-linecap="round" stroke-linejoin="round"/>
<path d="M13.7496 8.75C13.7496 9.81087 13.3282 10.8283 12.5781 11.5784C11.8279 12.3286 10.8105 12.75 9.74963 12.75C8.68877 12.75 7.67135 12.3286 6.92121 11.5784C6.17106 10.8283 5.74963 9.81087 5.74963 8.75" stroke="#232323" stroke-width="1.5" stroke-linecap="round" stroke-linejoin="round"/>
</svg>
