<svg width="32" height="32" viewBox="0 0 32 32" fill="none" xmlns="http://www.w3.org/2000/svg">
<rect width="32" height="32" rx="16" fill="#ECF4FF"/>
<path d="M15.0554 7.71739C15.3667 6.82183 16.6333 6.82183 16.9446 7.71739L18.3578 11.783C18.4951 12.1781 18.8638 12.446 19.282 12.4545L23.5853 12.5422C24.5333 12.5615 24.9247 13.7661 24.1691 14.3389L20.7392 16.9393C20.4059 17.192 20.265 17.6254 20.3862 18.0257L21.6326 22.1456C21.9071 23.0531 20.8825 23.7975 20.1042 23.256L16.5712 20.7975C16.2279 20.5586 15.7721 20.5586 15.4288 20.7975L11.8958 23.256C11.1175 23.7975 10.0929 23.0531 10.3674 22.1456L11.6138 18.0257C11.735 17.6254 11.5941 17.192 11.2608 16.9393L7.83088 14.3389C7.07535 13.7661 7.46673 12.5615 8.41465 12.5422L12.718 12.4545C13.1362 12.446 13.5049 12.1781 13.6422 11.783L15.0554 7.71739Z" fill="#759DD3"/>
</svg>
